# xmcd
#
# Track frame offsets:
#	150
#	17202
#	34310
#	50935
#	67520
#	84032
#	101272
#	114675
#	132840
#	146062
#
# Disc length: 2095 seconds
#
# Revision: 0
# Processed by: cddbd v1.5.1PL2 Copyright (c) Steve Scherf et al.
# Submitted via: audiograbber 1.83.01
#
DISCID=81082d0a
DTITLE=Timberline - Timberline
DYEAR=2000
DGENRE=Country
TTITLE0=Til He Opens His Eyes
TTITLE1=I'm the Lucky One
TTITLE2=The Ugly Woman Blues
TTITLE3=On the Outside Looking In
TTITLE4=She's There
TTITLE5=Willow Tree
TTITLE6=County Line
TTITLE7=The Roots of Momma's Love
TTITLE8=Road Map to Your Love
TTITLE9=Coo-chee-coo You
EXTD=
EXTT0=
EXTT1=
EXTT2=
EXTT3=
EXTT4=
EXTT5=
EXTT6=
EXTT7=
EXTT8=
EXTT9=
PLAYORDER=
